<svg width="24" height="24" viewBox="0 0 24 24" fill="none" xmlns="http://www.w3.org/2000/svg">
  <path d="M12 2C13.1 2 14.2 2.3 15.2 2.9C16.2 3.5 17.1 4.3 17.7 5.3C18.3 6.3 18.6 7.4 18.6 8.6C18.6 9.8 18.3 10.9 17.7 11.9C17.1 12.9 16.2 13.7 15.2 14.3C14.2 14.9 13.1 15.2 12 15.2C10.9 15.2 9.8 14.9 8.8 14.3C7.8 13.7 6.9 12.9 6.3 11.9C5.7 10.9 5.4 9.8 5.4 8.6C5.4 7.4 5.7 6.3 6.3 5.3C6.9 4.3 7.8 3.5 8.8 2.9C9.8 2.3 10.9 2 12 2Z" stroke="currentColor" stroke-width="2" fill="none"/>
  <circle cx="9" cy="6" r="1.5" fill="#ef4444"/>
  <circle cx="15" cy="6" r="1.5" fill="#f97316"/>
  <circle cx="18" cy="10" r="1.5" fill="#eab308"/>
  <circle cx="15" cy="14" r="1.5" fill="#22c55e"/>
  <circle cx="9" cy="14" r="1.5" fill="#3b82f6"/>
  <circle cx="6" cy="10" r="1.5" fill="#8b5cf6"/>
  <circle cx="12" cy="9" r="2" fill="currentColor" opacity="0.1"/>
  <path d="M12 16V22M8 18H16" stroke="currentColor" stroke-width="2" stroke-linecap="round"/>
</svg>