<svg width="24" height="24" viewBox="0 0 24 24" fill="none" xmlns="http://www.w3.org/2000/svg">
  <!-- QR Code pattern -->
  <rect x="2" y="2" width="8" height="8" rx="1" stroke="currentColor" stroke-width="2" fill="none"/>
  <rect x="4" y="4" width="4" height="4" fill="currentColor"/>
  
  <rect x="14" y="2" width="8" height="8" rx="1" stroke="currentColor" stroke-width="2" fill="none"/>
  <rect x="16" y="4" width="4" height="4" fill="currentColor"/>
  
  <rect x="2" y="14" width="8" height="8" rx="1" stroke="currentColor" stroke-width="2" fill="none"/>
  <rect x="4" y="16" width="4" height="4" fill="currentColor"/>
  
  <!-- Data pattern -->
  <rect x="12" y="12" width="2" height="2" fill="currentColor"/>
  <rect x="16" y="12" width="2" height="2" fill="currentColor"/>
  <rect x="20" y="12" width="2" height="2" fill="currentColor"/>
  
  <rect x="12" y="16" width="2" height="2" fill="currentColor"/>
  <rect x="16" y="16" width="2" height="2" fill="currentColor"/>
  <rect x="20" y="16" width="2" height="2" fill="currentColor"/>
  
  <rect x="12" y="20" width="2" height="2" fill="currentColor"/>
  <rect x="16" y="20" width="2" height="2" fill="currentColor"/>
  <rect x="20" y="20" width="2" height="2" fill="currentColor"/>
</svg>