<svg width="32" height="32" viewBox="0 0 32 32" fill="none" xmlns="http://www.w3.org/2000/svg">
  <rect width="32" height="32" rx="6" fill="url(#gradient)"/>
  <defs>
    <linearGradient id="gradient" x1="0%" y1="0%" x2="100%" y2="100%">
      <stop offset="0%" style="stop-color:#3b82f6"/>
      <stop offset="100%" style="stop-color:#8b5cf6"/>
    </linearGradient>
  </defs>
  
  <!-- Simple brain icon -->
  <path d="M16 6C18.5 6 20.5 7.5 21.5 9.5C22.5 11.5 22.5 14 22.5 16C22.5 18 22.5 20.5 21.5 22.5C20.5 24.5 18.5 26 16 26C13.5 26 11.5 24.5 10.5 22.5C9.5 20.5 9.5 18 9.5 16C9.5 14 9.5 11.5 10.5 9.5C11.5 7.5 13.5 6 16 6Z" fill="white" opacity="0.9"/>
  
  <!-- Simple neural dots -->
  <circle cx="13" cy="13" r="1" fill="white" opacity="0.8"/>
  <circle cx="19" cy="13" r="1" fill="white" opacity="0.8"/>
  <circle cx="16" cy="16" r="1" fill="white" opacity="0.8"/>
  <circle cx="13" cy="19" r="1" fill="white" opacity="0.8"/>
  <circle cx="19" cy="19" r="1" fill="white" opacity="0.8"/>
</svg>