<svg width="192" height="192" viewBox="0 0 192 192" fill="none" xmlns="http://www.w3.org/2000/svg">
  <rect width="192" height="192" rx="32" fill="url(#gradient)"/>
  <defs>
    <linearGradient id="gradient" x1="0%" y1="0%" x2="100%" y2="100%">
      <stop offset="0%" style="stop-color:#3b82f6"/>
      <stop offset="100%" style="stop-color:#8b5cf6"/>
    </linearGradient>
  </defs>
  
  <!-- Simple brain icon -->
  <path d="M96 36C111 36 123 45 129 57C135 69 135 84 135 96C135 108 135 123 129 135C123 147 111 156 96 156C81 156 69 147 63 135C57 123 57 108 57 96C57 84 57 69 63 57C69 45 81 36 96 36Z" fill="white" opacity="0.9"/>
  
  <!-- Simple neural network -->
  <circle cx="78" cy="78" r="6" fill="white" opacity="0.8"/>
  <circle cx="114" cy="78" r="6" fill="white" opacity="0.8"/>
  <circle cx="96" cy="96" r="6" fill="white" opacity="0.8"/>
  <circle cx="78" cy="114" r="6" fill="white" opacity="0.8"/>
  <circle cx="114" cy="114" r="6" fill="white" opacity="0.8"/>
  
  <!-- Connection lines -->
  <line x1="78" y1="78" x2="96" y2="96" stroke="white" stroke-width="2" opacity="0.6"/>
  <line x1="114" y1="78" x2="96" y2="96" stroke="white" stroke-width="2" opacity="0.6"/>
  <line x1="96" y1="96" x2="78" y2="114" stroke="white" stroke-width="2" opacity="0.6"/>
  <line x1="96" y1="96" x2="114" y2="114" stroke="white" stroke-width="2" opacity="0.6"/>
  
  <!-- Brand text -->
  <text x="96" y="170" text-anchor="middle" fill="white" font-family="system-ui, sans-serif" font-size="20" font-weight="700">BD</text>
</svg>