<svg width="512" height="512" viewBox="0 0 512 512" fill="none" xmlns="http://www.w3.org/2000/svg">
  <rect width="512" height="512" rx="64" fill="url(#gradient)"/>
  <defs>
    <linearGradient id="gradient" x1="0%" y1="0%" x2="100%" y2="100%">
      <stop offset="0%" style="stop-color:#3b82f6"/>
      <stop offset="100%" style="stop-color:#8b5cf6"/>
    </linearGradient>
  </defs>
  
  <!-- Brain shape -->
  <path d="M256 80C320 80 372 132 372 196C372 228 364 258 350 284C362 298 368 316 368 336C368 392 324 436 268 436H244C188 436 144 392 144 336C144 316 150 298 162 284C148 258 140 228 140 196C140 132 192 80 256 80Z" fill="white" opacity="0.95"/>
  
  <!-- Brain division -->
  <path d="M256 80C256 160 256 320 256 436" stroke="#3b82f6" stroke-width="6" opacity="0.3"/>
  
  <!-- X Eyes (Dead brain) -->
  <g stroke="white" stroke-width="16" stroke-linecap="round" opacity="0.9">
    <!-- Left X eye -->
    <line x1="200" y1="180" x2="230" y2="210"/>
    <line x1="230" y1="180" x2="200" y2="210"/>
    
    <!-- Right X eye -->
    <line x1="282" y1="180" x2="312" y2="210"/>
    <line x1="312" y1="180" x2="282" y2="210"/>
  </g>
  
  <!-- Sleepy mouth -->
  <path d="M220 280C240 300 272 300 292 280" stroke="white" stroke-width="12" stroke-linecap="round" fill="none" opacity="0.8"/>
  
  <!-- Brain texture lines -->
  <g stroke="#3b82f6" stroke-width="4" opacity="0.2">
    <path d="M160 240C172 228 184 240 196 228"/>
    <path d="M316 228C328 240 340 228 352 240"/>
    <path d="M172 320C184 308 196 320 208 308"/>
    <path d="M304 308C316 320 328 308 340 320"/>
  </g>
  
  <!-- Brand text -->
  <text x="256" y="470" text-anchor="middle" fill="white" font-family="system-ui, sans-serif" font-size="28" font-weight="700" opacity="0.9">BrainDead.site</text>
</svg>