<svg width="512" height="512" viewBox="0 0 512 512" fill="none" xmlns="http://www.w3.org/2000/svg">
  <rect width="512" height="512" rx="80" fill="url(#gradient)"/>
  <defs>
    <linearGradient id="gradient" x1="0%" y1="0%" x2="100%" y2="100%">
      <stop offset="0%" style="stop-color:#3b82f6"/>
      <stop offset="100%" style="stop-color:#8b5cf6"/>
    </linearGradient>
  </defs>
  
  <!-- Simple brain icon -->
  <path d="M256 96C296 96 328 120 344 152C360 184 360 224 360 256C360 288 360 328 344 360C328 392 296 416 256 416C216 416 184 392 168 360C152 328 152 288 152 256C152 224 152 184 168 152C184 120 216 96 256 96Z" fill="white" opacity="0.9"/>
  
  <!-- Simple neural network -->
  <circle cx="208" cy="208" r="16" fill="white" opacity="0.8"/>
  <circle cx="304" cy="208" r="16" fill="white" opacity="0.8"/>
  <circle cx="256" cy="256" r="16" fill="white" opacity="0.8"/>
  <circle cx="208" cy="304" r="16" fill="white" opacity="0.8"/>
  <circle cx="304" cy="304" r="16" fill="white" opacity="0.8"/>
  
  <!-- Connection lines -->
  <line x1="208" y1="208" x2="256" y2="256" stroke="white" stroke-width="4" opacity="0.6"/>
  <line x1="304" y1="208" x2="256" y2="256" stroke="white" stroke-width="4" opacity="0.6"/>
  <line x1="256" y1="256" x2="208" y2="304" stroke="white" stroke-width="4" opacity="0.6"/>
  <line x1="256" y1="256" x2="304" y2="304" stroke="white" stroke-width="4" opacity="0.6"/>
  
  <!-- Additional neural connections -->
  <line x1="208" y1="208" x2="304" y2="208" stroke="white" stroke-width="3" opacity="0.4"/>
  <line x1="208" y1="304" x2="304" y2="304" stroke="white" stroke-width="3" opacity="0.4"/>
  
  <!-- Brand text -->
  <text x="256" y="450" text-anchor="middle" fill="white" font-family="system-ui, sans-serif" font-size="48" font-weight="700">BrainDead</text>
</svg>