<svg width="192" height="192" viewBox="0 0 192 192" fill="none" xmlns="http://www.w3.org/2000/svg">
  <rect width="192" height="192" rx="32" fill="url(#gradient)"/>
  <defs>
    <linearGradient id="gradient" x1="0%" y1="0%" x2="100%" y2="100%">
      <stop offset="0%" style="stop-color:#3b82f6"/>
      <stop offset="100%" style="stop-color:#8b5cf6"/>
    </linearGradient>
  </defs>
  
  <!-- Brain shape -->
  <path d="M96 30C122 30 144 52 144 78C144 90 140 101 134 110C139 116 142 124 142 132C142 150 128 164 110 164H82C64 164 50 150 50 132C50 124 53 116 58 110C52 101 48 90 48 78C48 52 70 30 96 30Z" fill="white" opacity="0.95"/>
  
  <!-- Brain division line -->
  <path d="M96 30C96 60 96 120 96 164" stroke="#3b82f6" stroke-width="3" opacity="0.3"/>
  
  <!-- X Eyes (Dead brain) -->
  <g stroke="white" stroke-width="8" stroke-linecap="round" opacity="0.9">
    <!-- Left X eye -->
    <line x1="72" y1="66" x2="84" y2="78"/>
    <line x1="84" y1="66" x2="72" y2="78"/>
    
    <!-- Right X eye -->
    <line x1="108" y1="66" x2="120" y2="78"/>
    <line x1="120" y1="66" x2="108" y2="78"/>
  </g>
  
  <!-- Sleepy mouth -->
  <path d="M84 108C90 114 102 114 108 108" stroke="white" stroke-width="6" stroke-linecap="round" fill="none" opacity="0.8"/>
  
  <!-- Brain texture lines -->
  <g stroke="#3b82f6" stroke-width="2" opacity="0.2">
    <path d="M60 90C66 84 72 90 78 84"/>
    <path d="M114 84C120 90 126 84 132 90"/>
    <path d="M66 120C72 114 78 120 84 114"/>
    <path d="M108 114C114 120 120 114 126 120"/>
  </g>
  
  <!-- Brand text -->
  <text x="96" y="175" text-anchor="middle" fill="white" font-family="system-ui, sans-serif" font-size="16" font-weight="700" opacity="0.9">BrainDead</text>
</svg>