<svg width="200" height="200" viewBox="0 0 200 200" fill="none" xmlns="http://www.w3.org/2000/svg">
  <!-- Background circle -->
  <circle cx="100" cy="100" r="90" fill="url(#errorBg)" opacity="0.1"/>
  
  <!-- Brain with X -->
  <g transform="translate(75, 75)">
    <!-- Brain outline -->
    <path d="M25 6C27.8 6 30.2 7.8 31.6 10.3C33 12.8 33.4 15.8 33.4 18.7V21.9C35.8 21.9 38.2 23.7 39.6 26.2C41 28.7 41.4 31.7 41.4 34.6C41.4 37.5 41 40.5 39.6 43C38.2 45.5 35.8 47.3 33.4 47.3H31.2V50.5C31.2 53.4 30.8 56.4 29.4 58.9C28 61.4 25.6 63.2 22.2 63.2H20V66.4C20 69.3 19.6 72.3 18.2 74.8C16.8 77.3 14.4 79.1 11 79.1C7.6 79.1 5.2 77.3 3.8 74.8C2.4 72.3 2 69.3 2 66.4V63.2H-0.2C-3.6 63.2 -6 61.4 -7.4 58.9C-8.8 56.4 -9.2 53.4 -9.2 50.5C-9.2 47.6 -8.8 44.6 -7.4 42.1C-6 39.6 -3.6 37.8 -0.2 37.8H2V34.6C2 31.7 2.4 28.7 3.8 26.2C5.2 23.7 7.6 21.9 10 21.9C12.4 21.9 14.8 23.7 16.2 26.2C17.6 28.7 18 31.7 18 34.6V37.8H20.2C22.6 37.8 25 36 26.4 33.5C27.8 31 28.2 28 28.2 25.1C28.2 22.2 27.8 19.2 26.4 16.7C25 14.2 22.6 12.4 20.2 12.4H18V9.2C18 6.3 18.4 3.3 19.8 0.8C21.2 -1.7 23.6 -3.5 27 -3.5V6Z" stroke="#ef4444" stroke-width="2" fill="none" opacity="0.6"/>
    
    <!-- X mark -->
    <g transform="translate(15, 15)">
      <line x1="5" y1="5" x2="15" y2="15" stroke="#ef4444" stroke-width="3" stroke-linecap="round"/>
      <line x1="15" y1="5" x2="5" y2="15" stroke="#ef4444" stroke-width="3" stroke-linecap="round"/>
    </g>
  </g>
  
  <!-- Error text -->
  <text x="100" y="160" text-anchor="middle" fill="#ef4444" font-family="Inter, sans-serif" font-size="14" font-weight="600" opacity="0.8">Brain Not Found</text>
  
  <defs>
    <radialGradient id="errorBg" cx="50%" cy="50%" r="50%">
      <stop offset="0%" style="stop-color:#ef4444"/>
      <stop offset="100%" style="stop-color:#dc2626"/>
    </radialGradient>
  </defs>
</svg>